<?xml version="1.0" standalone="no"?>
<!DOCTYPE svg PUBLIC "-//W3C//DTD SVG 20010904//EN"
 "http://www.w3.org/TR/2001/REC-SVG-20010904/DTD/svg10.dtd">
<svg version="1.0" xmlns="http://www.w3.org/2000/svg"
 width="1200.000000pt" height="800.000000pt" viewBox="0 0 1200.000000 800.000000"
 preserveAspectRatio="xMidYMid meet">

<g transform="translate(0.000000,800.000000) scale(0.100000,-0.100000)"
fill="#000000" stroke="none">
<path d="M5330 7555 l0 -445 3335 0 3335 0 0 445 0 445 -3335 0 -3335 0 0
-445z"/>
<path d="M625 7816 l-38 -95 37 -56 c20 -30 34 -55 31 -55 -3 0 -29 15 -57 34
l-51 35 -51 -21 c-28 -11 -70 -27 -93 -36 -24 -9 -43 -19 -43 -22 0 -3 42 -22
93 -42 l92 -37 53 35 c30 19 56 34 58 31 2 -2 -75 -196 -171 -432 -96 -235
-174 -429 -173 -430 2 -2 64 24 138 56 l135 58 38 -75 c20 -41 39 -74 42 -74
3 0 21 33 41 73 20 39 37 73 39 75 1 1 61 -23 134 -54 72 -31 134 -55 136 -52
3 3 -73 196 -169 429 -95 233 -172 425 -171 427 2 2 28 -13 57 -33 l55 -36 96
38 c53 21 97 40 97 43 0 3 -44 22 -97 43 l-96 38 -54 -36 c-29 -19 -53 -33
-53 -29 0 3 14 25 30 49 17 24 30 50 30 57 0 15 -60 169 -70 181 -4 5 -25 -34
-45 -87z"/>
<path d="M1957 7814 l-37 -95 28 -42 c44 -64 47 -71 31 -62 -8 5 -33 21 -56
37 l-42 28 -95 -37 c-53 -21 -96 -40 -96 -43 0 -3 43 -22 96 -42 l95 -38 60
40 59 41 59 -41 60 -40 95 38 c53 20 96 39 96 42 0 3 -43 22 -96 43 l-95 37
-42 -28 c-64 -44 -71 -47 -62 -31 5 8 21 33 37 56 l28 42 -37 95 c-21 53 -40
96 -43 96 -3 0 -22 -43 -43 -96z"/>
<path d="M3321 7888 c-5 -13 -20 -52 -35 -87 -14 -36 -26 -71 -26 -78 0 -8 14
-34 30 -58 17 -24 30 -46 30 -49 0 -4 -24 10 -53 29 l-53 35 -92 -37 c-51 -20
-92 -39 -92 -43 0 -4 41 -23 92 -43 l92 -37 56 37 c30 20 59 36 65 36 6 0 35
-16 65 -36 l56 -37 92 37 c51 20 92 39 92 43 0 4 -41 23 -92 43 l-92 37 -53
-35 c-29 -19 -55 -35 -58 -35 -3 0 11 25 31 55 l37 56 -37 94 c-21 52 -40 95
-42 95 -3 0 -8 -10 -13 -22z"/>
<path d="M4625 7816 l-38 -95 37 -56 c20 -30 34 -55 31 -55 -3 0 -29 15 -57
34 l-51 35 -51 -21 c-28 -11 -70 -27 -93 -36 -24 -9 -43 -19 -43 -22 0 -3 42
-22 93 -42 l92 -37 53 35 c30 19 56 34 58 31 2 -2 -75 -196 -171 -432 -96
-235 -174 -429 -173 -430 2 -2 64 24 138 56 l135 58 38 -75 c20 -41 39 -74 42
-74 3 0 21 33 41 73 20 39 37 73 39 75 1 1 61 -23 134 -54 72 -31 134 -55 136
-52 3 3 -73 196 -169 429 -95 233 -172 425 -171 427 2 2 28 -13 57 -33 l55
-36 96 38 c53 21 97 40 97 43 0 3 -44 22 -97 43 l-96 38 -54 -36 c-29 -19 -53
-33 -53 -29 0 3 14 25 30 49 17 24 30 50 30 57 0 15 -60 169 -70 181 -4 5 -25
-34 -45 -87z"/>
<path d="M1835 7198 c-88 -215 -168 -411 -177 -435 l-18 -43 33 14 c125 52
233 99 239 103 4 2 24 -30 45 -72 21 -41 40 -75 43 -75 3 0 22 34 43 75 l37
75 32 -13 c127 -54 234 -100 241 -104 8 -5 17 -26 -188 475 -88 216 -162 392
-165 392 -3 0 -77 -176 -165 -392z"/>
<path d="M3321 7570 c-63 -144 -340 -834 -336 -838 3 -3 64 20 137 51 72 31
133 56 134 54 1 -1 18 -35 38 -74 20 -40 38 -73 41 -73 3 0 21 33 41 73 20 39
37 73 38 74 2 2 65 -24 140 -57 100 -43 136 -55 131 -43 -23 62 -339 831 -345
843 -7 12 -11 10 -19 -10z"/>
<path d="M1315 6788 c-7 -18 -24 -61 -38 -95 l-25 -61 34 -51 c19 -28 34 -53
34 -56 0 -3 -24 11 -54 30 l-53 36 -99 -40 -99 -39 35 -15 c19 -8 64 -27 98
-41 l64 -25 59 40 c32 22 59 38 59 36 0 -2 -79 -196 -175 -432 -96 -235 -173
-430 -170 -433 2 -3 64 21 136 52 73 31 133 55 134 54 2 -2 19 -36 39 -75 20
-40 38 -73 41 -73 3 0 21 33 41 73 20 39 37 73 38 74 2 2 64 -24 139 -56 75
-33 137 -58 137 -56 0 2 -79 196 -175 431 -96 235 -173 429 -171 432 2 2 28
-12 57 -31 l52 -36 51 21 c28 11 70 27 94 36 23 9 42 19 42 22 0 4 -43 23 -95
44 l-94 38 -43 -30 c-70 -47 -71 -47 -32 12 l37 57 -37 94 c-21 52 -40 95 -42
95 -3 0 -11 -15 -19 -32z"/>
<path d="M2625 6726 l-38 -95 37 -57 c39 -59 38 -59 -32 -12 l-43 30 -94 -38
c-52 -21 -95 -40 -95 -44 0 -3 19 -13 43 -22 23 -9 65 -25 93 -36 l51 -21 52
36 c29 19 55 33 57 31 2 -3 -75 -197 -171 -432 -96 -235 -175 -429 -175 -431
0 -2 62 23 137 56 75 32 137 58 139 56 1 -1 18 -35 38 -74 20 -40 38 -73 41
-73 3 0 21 33 41 73 20 39 37 73 39 75 1 1 61 -23 134 -54 72 -31 134 -55 136
-52 3 3 -74 198 -170 433 -96 236 -175 430 -175 432 0 2 27 -14 59 -36 l59
-40 64 25 c34 14 79 33 98 41 l35 15 -99 39 -99 40 -53 -36 c-30 -19 -54 -33
-54 -30 0 3 15 28 34 56 l34 51 -35 86 c-19 48 -38 91 -43 95 -4 5 -25 -34
-45 -87z"/>
<path d="M3957 6724 l-37 -95 28 -42 c16 -23 32 -48 37 -56 9 -16 2 -13 -62
31 l-42 28 -98 -39 -98 -39 35 -15 c19 -8 64 -27 98 -41 l64 -25 59 40 59 40
59 -41 60 -40 95 38 c53 20 96 40 96 43 0 3 -43 22 -95 43 l-94 38 -43 -30
c-65 -44 -72 -47 -63 -31 5 8 21 33 37 56 l28 42 -37 95 c-21 53 -40 96 -43
96 -3 0 -22 -43 -43 -96z"/>
<path d="M3831 6097 c-91 -221 -171 -417 -178 -435 -8 -19 -10 -32 -6 -29 7 4
112 49 241 104 l32 13 37 -75 c21 -41 40 -75 43 -75 3 0 22 34 43 75 l37 75
32 -13 c129 -55 234 -100 241 -104 4 -3 2 10 -6 29 -7 18 -87 214 -178 435
-90 222 -166 403 -169 403 -3 0 -79 -181 -169 -403z"/>
<path d="M5332 5778 l3 -443 3333 -3 3332 -2 0 445 0 445 -3335 0 -3335 0 2
-442z"/>
<path d="M626 5639 l-39 -99 37 -56 c39 -59 38 -59 -33 -11 l-43 29 -100 -39
-101 -40 101 -40 100 -41 52 35 c28 19 53 33 56 31 2 -2 -75 -195 -170 -429
-96 -233 -171 -425 -167 -427 3 -1 64 23 134 53 71 30 130 55 132 55 3 0 22
-35 44 -77 l38 -77 38 74 c21 41 39 76 40 78 2 2 62 -22 135 -53 73 -31 134
-54 136 -52 3 2 -72 193 -167 423 -94 231 -174 425 -177 433 -3 8 21 -4 54
-26 l59 -41 92 37 c50 20 94 39 97 42 3 3 -37 23 -89 43 l-96 38 -54 -36 c-30
-20 -55 -34 -55 -31 0 3 15 28 34 56 l34 51 -39 96 c-21 52 -40 97 -42 98 -1
2 -20 -42 -41 -97z"/>
<path d="M3293 5642 l-41 -100 34 -51 c19 -28 34 -53 34 -56 0 -3 -24 11 -54
30 l-53 36 -99 -40 c-79 -31 -95 -41 -79 -47 11 -4 56 -22 100 -40 l79 -32 60
41 c33 22 57 34 54 26 -3 -8 -83 -202 -177 -433 -95 -230 -170 -421 -167 -423
2 -2 63 21 136 52 73 31 133 55 135 53 1 -2 19 -37 40 -78 l38 -74 38 77 c22
42 41 77 44 77 2 0 61 -25 132 -55 70 -30 131 -54 134 -53 4 2 -71 194 -167
427 -95 234 -172 427 -170 429 3 2 28 -12 57 -31 l52 -36 46 19 c25 10 66 26
91 35 25 10 48 21 52 24 4 4 -37 24 -91 45 l-99 38 -44 -29 c-70 -48 -71 -48
-32 11 l37 56 -40 101 -40 102 -40 -101z"/>
<path d="M4626 5639 l-39 -99 37 -56 c39 -59 38 -59 -33 -11 l-43 29 -100 -39
-101 -40 101 -40 100 -41 52 35 c28 19 53 33 56 31 2 -2 -75 -195 -170 -429
-96 -233 -171 -425 -167 -427 3 -1 64 23 134 53 71 30 130 55 132 55 3 0 22
-35 44 -77 l38 -77 38 74 c21 41 39 76 40 78 2 2 62 -22 135 -53 73 -31 134
-54 136 -52 3 2 -72 193 -167 423 -94 231 -174 425 -177 433 -3 8 21 -4 54
-26 l59 -41 92 37 c50 20 94 39 97 42 3 3 -37 23 -89 43 l-96 38 -54 -36 c-30
-20 -55 -34 -55 -31 0 3 15 28 34 56 l34 51 -39 96 c-21 52 -40 97 -42 98 -1
2 -20 -42 -41 -97z"/>
<path d="M1957 5634 l-37 -95 28 -42 c47 -69 46 -70 -11 -32 l-56 37 -96 -38
c-52 -21 -92 -41 -88 -45 5 -4 47 -23 94 -42 l87 -35 61 40 61 41 61 -41 61
-40 87 35 c47 19 89 38 94 42 4 4 -36 24 -88 45 l-96 38 -56 -37 c-57 -38 -58
-37 -11 32 l28 42 -37 95 c-21 53 -40 96 -43 96 -3 0 -22 -43 -43 -96z"/>
<path d="M1821 4985 c-96 -234 -172 -428 -169 -431 3 -2 63 20 133 50 70 31
131 54 134 52 3 -3 22 -36 41 -75 18 -39 37 -71 40 -71 3 0 22 32 40 71 19 39
38 72 41 75 3 2 64 -21 134 -52 70 -30 130 -52 133 -50 6 6 -340 856 -348 856
-3 0 -84 -191 -179 -425z"/>
<path d="M0 4000 l0 -440 6000 0 6000 0 0 440 0 440 -6000 0 -6000 0 0 -440z"/>
<path d="M0 2225 l0 -445 6000 0 6000 0 0 445 0 445 -6000 0 -6000 0 0 -445z"/>
<path d="M0 445 l0 -445 6000 0 6000 0 0 445 0 445 -6000 0 -6000 0 0 -445z"/>
</g>
</svg>
